# xmcd
#
# Track frame offsets: 
#        150
#        12702
#        24153
#        34677
#        49964
#        64480
#        76935
#        90777
#        101929
#        110488
#        125205
#        143600
#        153575
#        165210
#        175357
#        187889
#        206133
#        217391
#        227654
#        239308
#
# Disc length: 3340 seconds
#
# Revision: 1
# Processed by: cddbd v1.5.2PL0 Copyright (c) Steve Scherf et al.
# Submitted via: ExactAudioCopy v1.3
#
DISCID=170d0a14
DTITLE=Marty Robbins - Great Performances
DYEAR=1998
DGENRE=Country
TTITLE0=I'm So Lonesome I Could Cry
TTITLE1=Are You Sincere?
TTITLE2=Unchained Melody
TTITLE3=Misty
TTITLE4=By The Time I Get To Phoenix
TTITLE5=Am I That Easy To Forget
TTITLE6=Love Me Tender
TTITLE7=My Blue Heaven
TTITLE8=To Each His Own
TTITLE9=She Thinks I Still Care
TTITLE10=A Good Hearted Woman
TTITLE11=I Can't Help It (If I'm Still In Love With You)
TTITLE12=Today, I Started Loving You Again
TTITLE13=Can't Help Falling In Love
TTITLE14=Streets Of Laredo
TTITLE15=You Gave Me A Mountain
TTITLE16=Harbor Lights
TTITLE17=The Hawaiian Wedding Song
TTITLE18=Lovely Hula Hands
TTITLE19=How Is The Hour (Maori Farewell Song)
EXTD=
EXTT0=
EXTT1=
EXTT2=
EXTT3=
EXTT4=
EXTT5=
EXTT6=
EXTT7=
EXTT8=
EXTT9=
EXTT10=
EXTT11=
EXTT12=
EXTT13=
EXTT14=
EXTT15=
EXTT16=
EXTT17=
EXTT18=
EXTT19=
PLAYORDER=
